
#
# '/mnt/sdcard/Download/cds-data/image/png/Comarch_Picture_08 (1920x1080).png'
#
General
Count                                    : 284
Count of stream of this kind             : 1
Kind of stream                           : General
Kind of stream                           : General
Stream identifier                        : 0
Count of image streams                   : 1
Image_Format_List                        : PNG
Image_Format_WithHint_List               : PNG
Codecs Image                             : PNG
Complete name                            : /mnt/sdcard/Download/cds-data/image/png/Comarch_Picture_08 (1920x1080).png
Folder name                              : /mnt/sdcard/Download/cds-data/image/png
File name                                : Comarch_Picture_08 (1920x1080)
File extension                           : png
Format                                   : PNG
Format                                   : PNG
Format/Info                              : Portable Network Graphic
Format/Extensions usually used           : png
Commercial name                          : PNG
Internet media type                      : image/png
Codec                                    : PNG
Codec                                    : PNG
Codec/Info                               : Portable Network Graphic
Codec/Extensions usually used            : png
File size                                : 1084366
File size                                : 1.03 MiB
File size                                : 1 MiB
File size                                : 1.0 MiB
File size                                : 1.03 MiB
File size                                : 1.034 MiB
Stream size                              : 0
Stream size                              : 0.00 Byte (0%)
Stream size                              :  Byte0
Stream size                              : 0.0 Byte
Stream size                              : 0.00 Byte
Stream size                              : 0.000 Byte
Stream size                              : 0.00 Byte (0%)
Proportion of this stream                : 0.00000
File last modification date              : UTC 2014-11-26 06:30:06
File last modification date (local)      : 2014-11-26 15:30:06

Image
Count                                    : 105
Count of stream of this kind             : 1
Kind of stream                           : Image
Kind of stream                           : Image
Stream identifier                        : 0
Format                                   : PNG
Format/Info                              : Portable Network Graphic
Commercial name                          : PNG
Format_Compression                       : LZ77
Internet media type                      : image/png
Codec                                    : PNG
Codec                                    : PNG
Width                                    : 1920
Width                                    : 1 920 pixels
Height                                   : 1080
Height                                   : 1 080 pixels
Resolution                               : 8
Resolution                               : 8 bits
Bit depth                                : 8
Bit depth                                : 8 bits
Compression mode                         : Lossless
Compression mode                         : Lossless
Stream size                              : 1084366
Stream size                              : 1.03 MiB (100%)
Stream size                              : 1 MiB
Stream size                              : 1.0 MiB
Stream size                              : 1.03 MiB
Stream size                              : 1.034 MiB
Stream size                              : 1.03 MiB (100%)
Proportion of this stream                : 1.00000

